<svg 
 xmlns="http://www.w3.org/2000/svg"
 xmlns:xlink="http://www.w3.org/1999/xlink"
 width="1259.5px" height="957.5px">
<path fill-rule="evenodd"  stroke="rgb(0, 0, 0)" stroke-width="1px" stroke-linecap="butt" stroke-linejoin="miter" fill="rgb(0, 0, 0)"
 d="M1.500,778.499 C1.500,778.499 5.636,691.233 76.500,663.500 C165.858,432.266 202.171,375.358 241.499,310.499 C280.828,245.641 377.271,124.368 441.500,93.500 C505.728,62.631 602.365,6.868 735.500,1.499 C872.545,4.664 868.126,11.905 948.500,43.499 C1034.205,80.782 1160.499,246.499 1160.499,246.499 C1160.499,246.499 1059.476,295.871 990.499,310.499 C921.523,325.128 760.500,375.500 760.500,375.500 L661.500,398.500 C661.500,398.500 535.824,437.371 435.500,454.499 C335.175,471.628 329.500,579.500 329.500,579.500 C329.500,579.500 328.836,616.371 353.499,629.499 C378.163,642.628 412.499,633.500 412.499,633.500 L422.499,635.499 C422.499,635.499 560.395,539.371 584.500,524.500 C608.604,509.628 773.950,422.371 798.500,413.499 C823.49,404.628 891.500,371.499 891.500,371.499 C891.500,371.499 1036.953,322.732 1081.500,314.500 C1126.46,306.267 1104.584,300.673 1168.499,305.499 C1192.529,309.267 1203.500,326.500 1203.500,326.500 C1203.500,326.500 1226.356,364.590 1239.500,419.499 C1252.643,474.409 1257.500,527.499 1257.500,527.499 C1257.500,527.499 1258.343,629.590 1230.500,684.500 C1202.656,739.409 1165.978,780.108 1087.499,845.500 C1074.189,853.409 1008.764,889.90 952.499,905.500 C896.235,921.909 842.219,940.90 781.500,950.500 C720.780,960.909 585.758,951.491 558.500,949.500 C531.241,947.508 356.689,902.491 310.500,885.499 C264.310,868.508 207.500,855.500 207.500,855.500 C207.500,855.500 151.533,850.454 112.499,868.499 C73.466,886.545 64.529,895.454 60.500,895.500 C56.470,895.545 34.22,869.954 31.500,860.500 C28.977,851.45 39.500,819.500 39.500,819.500 L1.500,778.499 Z"/>
</svg>